<svg width="432" height="122" viewBox="0 0 432 122" fill="none" xmlns="http://www.w3.org/2000/svg">
<path fill-rule="evenodd" clip-rule="evenodd" d="M99.8673 58.5633C98.8953 56.7823 97.4373 55.4653 95.4933 54.6143C93.5493 53.7643 91.6453 53.3383 89.7833 53.3383C87.5963 53.3383 85.5303 53.7643 83.5863 54.6143C81.6423 55.4653 79.9813 56.6003 78.6043 58.0163C77.2263 59.4353 76.1333 61.0543 75.3243 62.8763C74.5133 64.6993 74.1093 66.5823 74.1093 68.5263V69.0123C76.1333 68.2033 78.3013 67.3323 80.6093 66.4003C82.9183 65.4703 85.2263 64.5173 87.5343 63.5443C89.8433 62.5733 92.0493 61.6613 94.1573 60.8113C96.2623 59.9603 98.1663 59.2123 99.8673 58.5633ZM110.073 88.9383C107.561 91.2073 104.524 92.9893 100.96 94.2843C97.3953 95.5793 93.7503 96.2283 90.0253 96.2283C86.2173 96.2283 82.6333 95.5183 79.2733 94.1023C75.9103 92.6863 72.9943 90.7423 70.5253 88.2703C68.0533 85.8003 66.0903 82.9243 64.6323 79.6443C63.1743 76.3633 62.4453 72.8603 62.4453 69.1343C62.4453 65.4093 63.1743 61.9043 64.6323 58.6243C66.0903 55.3433 68.0533 52.4693 70.5253 49.9983C72.9943 47.5273 75.8713 45.5843 79.1513 44.1663C82.4313 42.7493 85.8943 42.0393 89.5393 42.0393C95.3713 42.0393 100.493 43.8013 104.909 47.3243C109.323 50.8483 112.461 55.4863 114.325 61.2363C111.895 62.1283 109.08 63.2013 105.881 64.4563C102.68 65.7123 99.3393 67.0283 95.8573 68.4053C92.3743 69.7833 88.8903 71.1803 85.4093 72.5963C81.9253 74.0153 78.7263 75.2903 75.8103 76.4243C77.1863 78.9353 79.0913 80.9613 81.5203 82.4993C83.9503 84.0383 86.7033 84.8073 89.7833 84.8073C91.8883 84.8073 94.0143 84.4243 96.1613 83.6533C98.3063 82.8843 100.068 81.8513 101.447 80.5553L110.073 88.9383Z" fill="#4B5366"/>
<path fill-rule="evenodd" clip-rule="evenodd" d="M126.821 68.8912C126.821 71.1602 127.205 73.2652 127.975 75.2092C128.744 77.1532 129.838 78.8352 131.256 80.2512C132.672 81.6692 134.354 82.7842 136.298 83.5932C138.242 84.4032 140.387 84.8082 142.738 84.8082C145.086 84.8082 147.233 84.4032 149.177 83.5932C151.121 82.7842 152.801 81.6482 154.219 80.1902C155.635 78.7322 156.729 77.0322 157.5 75.0872C158.269 73.1432 158.654 71.0782 158.654 68.8912C158.654 66.7042 158.269 64.6602 157.5 62.7552C156.729 60.8532 155.635 59.2132 154.219 57.8342C152.801 56.4582 151.121 55.3652 149.177 54.5542C147.233 53.7452 145.086 53.3392 142.738 53.3392C140.387 53.3392 138.242 53.7242 136.298 54.4932C134.354 55.2642 132.672 56.3572 131.256 57.7742C129.838 59.1922 128.744 60.8532 127.975 62.7552C127.205 64.6602 126.821 66.7042 126.821 68.8912ZM115.036 69.6202C115.036 65.8952 115.765 62.3512 117.223 58.9892C118.681 55.6282 120.644 52.6922 123.115 50.1802C125.585 47.6702 128.462 45.6652 131.742 44.1662C135.022 42.6682 138.485 41.9182 142.13 41.9182C144.56 41.9182 146.747 42.2222 148.691 42.8292C150.635 43.4372 152.315 44.1472 153.734 44.9552C155.15 45.7662 156.264 46.5962 157.074 47.4462C157.883 48.2972 158.411 48.9652 158.654 49.4512L159.14 43.2542H170.44V94.8922H158.654V91.4902C158.654 91.0862 158.673 90.7002 158.715 90.3362C158.755 89.9712 158.776 89.7092 158.776 89.5462C158.451 89.9522 157.883 90.5392 157.074 91.3082C156.264 92.0782 155.171 92.8272 153.794 93.5562C152.416 94.2852 150.776 94.9112 148.873 95.4392C146.969 95.9652 144.761 96.2282 142.252 96.2282C138.282 96.2282 134.637 95.4992 131.317 94.0412C127.994 92.5832 125.12 90.6402 122.69 88.2092C120.26 85.7802 118.377 82.9662 117.04 79.7652C115.704 76.5662 115.036 73.1852 115.036 69.6202Z" fill="#4B5366"/>
<mask id="mask0_1570_739" style="mask-type:alpha" maskUnits="userSpaceOnUse" x="0" y="0" width="432" height="122">
<path fill-rule="evenodd" clip-rule="evenodd" d="M0 122H432V0H0V122Z" fill="white"/>
</mask>
<g mask="url(#mask0_1570_739)">
<path fill-rule="evenodd" clip-rule="evenodd" d="M175.777 94.892H187.319V0H175.777V94.892Z" fill="#4B5366"/>
<path fill-rule="evenodd" clip-rule="evenodd" d="M192.656 94.892H204.32V43.254H192.656V94.892ZM191.32 23.207C191.32 21.102 192.088 19.361 193.628 17.982C195.167 16.606 196.828 15.917 198.61 15.917C200.391 15.917 202.031 16.606 203.531 17.982C205.029 19.361 205.778 21.102 205.778 23.207C205.778 25.394 205.029 27.156 203.531 28.492C202.031 29.829 200.391 30.497 198.61 30.497C196.828 30.497 195.167 29.829 193.628 28.492C192.088 27.156 191.32 25.394 191.32 23.207Z" fill="#4B5366"/>
<path fill-rule="evenodd" clip-rule="evenodd" d="M220.161 68.8912C220.161 71.1602 220.544 73.2652 221.315 75.2092C222.084 77.1532 223.178 78.8352 224.596 80.2512C226.012 81.6692 227.693 82.7842 229.638 83.5932C231.582 84.4032 233.726 84.8082 236.077 84.8082C238.426 84.8082 240.592 84.4032 242.577 83.5932C244.561 82.7842 246.263 81.6482 247.681 80.1902C249.097 78.7322 250.19 77.0322 250.961 75.0872C251.729 73.1432 252.115 71.0782 252.115 68.8912C252.115 66.7042 251.729 64.6602 250.961 62.7552C250.19 60.8532 249.097 59.2132 247.681 57.8342C246.263 56.4582 244.561 55.3652 242.577 54.5542C240.592 53.7452 238.426 53.3392 236.077 53.3392C233.726 53.3392 231.582 53.7242 229.638 54.4932C227.693 55.2642 226.012 56.3572 224.596 57.7742C223.178 59.1922 222.084 60.8532 221.315 62.7552C220.544 64.6602 220.161 66.7042 220.161 68.8912ZM208.497 69.3772C208.497 65.4892 209.183 61.8652 210.562 58.5032C211.938 55.1422 213.822 52.2262 216.212 49.7552C218.6 47.2852 221.394 45.3622 224.596 43.9832C227.794 42.6072 231.218 41.9182 234.862 41.9182C237.615 41.9182 240.045 42.2832 242.152 43.0122C244.258 43.7412 246.019 44.5512 247.437 45.4412C248.853 46.3342 249.947 47.1842 250.718 47.9932C251.487 48.8042 251.952 49.2892 252.115 49.4512C252.115 48.5602 252.195 47.5892 252.358 46.5352C252.519 45.4832 252.601 44.3902 252.601 43.2542H263.779V92.2192C263.779 96.5932 263.09 100.5 261.714 103.944C260.336 107.386 258.412 110.262 255.942 112.57C253.471 114.879 250.515 116.641 247.073 117.855C243.629 119.071 239.844 119.678 235.713 119.678C232.554 119.678 229.778 119.353 227.39 118.706C225 118.057 222.852 117.206 220.95 116.155C219.047 115.101 217.306 113.926 215.725 112.631C214.146 111.334 212.628 110.037 211.17 108.743L218.703 100.846C220.97 102.951 223.399 104.752 225.993 106.252C228.584 107.75 231.743 108.5 235.47 108.5C240.491 108.5 244.501 107.285 247.498 104.855C250.494 102.425 251.994 98.9812 251.994 94.5282V93.1302C251.994 92.6042 252.033 92.0582 252.115 91.4902C252.115 90.7612 252.195 90.1142 252.358 89.5462C252.519 88.9802 252.601 88.4942 252.601 88.0882C251.872 88.8992 251.001 89.7892 249.989 90.7612C248.975 91.7332 247.761 92.6252 246.344 93.4342C244.926 94.2452 243.286 94.9112 241.423 95.4392C239.558 95.9652 237.414 96.2282 234.983 96.2282C231.096 96.2282 227.53 95.5392 224.292 94.1632C221.051 92.7872 218.257 90.8832 215.908 88.4532C213.557 86.0222 211.735 83.1882 210.44 79.9482C209.144 76.7092 208.497 73.1852 208.497 69.3772Z" fill="#4B5366"/>
<path fill-rule="evenodd" clip-rule="evenodd" d="M268.116 43.2542H278.321C278.483 46.1702 278.665 48.5402 278.868 50.3622C279.069 52.1852 279.252 54.2312 279.415 56.4982C281.277 52.1242 283.911 48.6002 287.312 45.9272C290.715 43.2542 294.967 41.9182 300.07 41.9182C305.335 41.9182 309.526 43.3572 312.645 46.2312C315.762 49.1072 317.403 52.8532 317.566 57.4702V94.8922H306.023V62.9372C305.86 60.4272 304.97 58.2592 303.35 56.4372C301.729 54.6142 299.22 53.6242 295.817 53.4602C293.468 53.4602 291.302 53.8852 289.317 54.7362C287.332 55.5872 285.631 56.7412 284.215 58.1992C282.796 59.6572 281.703 61.4002 280.933 63.4232C280.163 65.4492 279.779 67.6362 279.779 69.9842V94.8922H268.116V43.2542Z" fill="#4B5366"/>
<path fill-rule="evenodd" clip-rule="evenodd" d="M358.679 58.5633C357.707 56.7823 356.249 55.4653 354.305 54.6143C352.362 53.7643 350.457 53.3383 348.595 53.3383C346.408 53.3383 344.342 53.7643 342.399 54.6143C340.454 55.4653 338.793 56.6003 337.417 58.0163C336.038 59.4353 334.946 61.0543 334.136 62.8763C333.325 64.6993 332.921 66.5823 332.921 68.5263V69.0123C334.946 68.2033 337.114 67.3323 339.422 66.4003C341.73 65.4703 344.038 64.5173 346.347 63.5443C348.656 62.5733 350.862 61.6613 352.969 60.8113C355.075 59.9603 356.979 59.2123 358.679 58.5633ZM368.885 88.9383C366.373 91.2073 363.336 92.9893 359.773 94.2843C356.207 95.5793 352.563 96.2283 348.838 96.2283C345.03 96.2283 341.446 95.5183 338.085 94.1023C334.723 92.6863 331.807 90.7423 329.337 88.2703C326.866 85.8003 324.903 82.9243 323.445 79.6443C321.987 76.3633 321.257 72.8603 321.257 69.1343C321.257 65.4093 321.987 61.9043 323.445 58.6243C324.903 55.3433 326.866 52.4693 329.337 49.9983C331.807 47.5273 334.683 45.5843 337.964 44.1663C341.244 42.7493 344.707 42.0393 348.352 42.0393C354.184 42.0393 359.306 43.8013 363.722 47.3243C368.136 50.8483 371.274 55.4863 373.138 61.2363C370.708 62.1283 367.893 63.2013 364.694 64.4563C361.492 65.7123 358.152 67.0283 354.67 68.4053C351.186 69.7833 347.702 71.1803 344.221 72.5963C340.738 74.0153 337.538 75.2903 334.622 76.4243C335.998 78.9353 337.903 80.9613 340.333 82.4993C342.763 84.0383 345.516 84.8073 348.595 84.8073C350.7 84.8073 352.826 84.4243 354.974 83.6533C357.118 82.8843 358.881 81.8513 360.259 80.5553L368.885 88.9383Z" fill="#4B5366"/>
<path fill-rule="evenodd" clip-rule="evenodd" d="M386.634 68.891C386.634 71.16 387.017 73.265 387.788 75.209C388.557 77.153 389.651 78.835 391.069 80.251C392.485 81.669 394.166 82.784 396.111 83.593C398.055 84.403 400.199 84.808 402.55 84.808C404.899 84.808 407.065 84.403 409.05 83.593C411.034 82.784 412.736 81.648 414.154 80.19C415.57 78.732 416.663 77.032 417.434 75.087C418.202 73.143 418.588 71.078 418.588 68.891C418.588 66.704 418.202 64.66 417.434 62.755C416.663 60.853 415.57 59.213 414.154 57.834C412.736 56.458 411.034 55.365 409.05 54.554C407.065 53.745 404.899 53.339 402.55 53.339C400.199 53.339 398.055 53.724 396.111 54.493C394.166 55.264 392.485 56.357 391.069 57.774C389.651 59.192 388.557 60.853 387.788 62.755C387.017 64.66 386.634 66.704 386.634 68.891ZM374.97 69.134C374.97 65.085 375.638 61.4 376.975 58.078C378.311 54.757 380.173 51.902 382.564 49.512C384.951 47.123 387.746 45.259 390.946 43.923C394.146 42.586 397.649 41.918 401.456 41.918C404.048 41.918 406.317 42.203 408.261 42.768C410.204 43.336 411.863 44.025 413.242 44.834C414.618 45.644 415.733 46.516 416.583 47.446C417.434 48.378 418.102 49.168 418.588 49.815V0H430.252V94.892H418.588V91.49C418.588 91.086 418.628 90.64 418.709 90.154C418.789 89.667 418.831 89.303 418.831 89.06C418.102 89.789 417.21 90.578 416.158 91.429C415.105 92.28 413.85 93.07 412.392 93.799C410.934 94.528 409.293 95.114 407.471 95.56C405.649 96.004 403.562 96.228 401.214 96.228C397.082 96.228 393.377 95.518 390.097 94.102C386.816 92.686 384.062 90.742 381.834 88.27C379.606 85.8 377.905 82.924 376.732 79.644C375.556 76.363 374.97 72.861 374.97 69.134Z" fill="#4B5366"/>
<path d="M23.8911 53.0938V43.4158H30.2211" stroke="#338DC8" stroke-width="1.01"/>
<path d="M23.8911 20.2754V26.7934H33.9231" stroke="#338DC8" stroke-width="1.01"/>
<path d="M14.7832 30.7344H31.0562" stroke="#338DC8" stroke-width="1.01"/>
<path d="M14.7832 34.8081H24.7272" stroke="#338DC8" stroke-width="1.01"/>
<path d="M14.7832 38.855H35.5952" stroke="#338DC8" stroke-width="1.01"/>
<path fill-rule="evenodd" clip-rule="evenodd" d="M32.6322 43.3183C32.6322 43.9843 32.0922 44.5243 31.4262 44.5243C30.7602 44.5243 30.2202 43.9843 30.2202 43.3183C30.2202 42.6523 30.7602 42.1123 31.4262 42.1123C32.0922 42.1123 32.6322 42.6523 32.6322 43.3183Z" stroke="#338DC8" stroke-width="1.01"/>
<path fill-rule="evenodd" clip-rule="evenodd" d="M38.0062 38.8549C38.0062 39.5209 37.4662 40.0609 36.8002 40.0609C36.1342 40.0609 35.5942 39.5209 35.5942 38.8549C35.5942 38.1889 36.1342 37.6489 36.8002 37.6489C37.4662 37.6489 38.0062 38.1889 38.0062 38.8549Z" stroke="#338DC8" stroke-width="1.01"/>
<path fill-rule="evenodd" clip-rule="evenodd" d="M27.1393 34.8081C27.1393 35.4741 26.5993 36.0141 25.9333 36.0141C25.2673 36.0141 24.7273 35.4741 24.7273 34.8081C24.7273 34.1421 25.2673 33.6021 25.9333 33.6021C26.5993 33.6021 27.1393 34.1421 27.1393 34.8081Z" stroke="#338DC8" stroke-width="1.01"/>
<path fill-rule="evenodd" clip-rule="evenodd" d="M33.4684 30.7343C33.4684 31.4003 32.9284 31.9403 32.2624 31.9403C31.5964 31.9403 31.0564 31.4003 31.0564 30.7343C31.0564 30.0683 31.5964 29.5283 32.2624 29.5283C32.9284 29.5283 33.4684 30.0683 33.4684 30.7343Z" stroke="#338DC8" stroke-width="1.01"/>
<path fill-rule="evenodd" clip-rule="evenodd" d="M36.3346 26.7934C36.3346 27.4594 35.7946 27.9994 35.1286 27.9994C34.4626 27.9994 33.9226 27.4594 33.9226 26.7934C33.9226 26.1274 34.4626 25.5874 35.1286 25.5874C35.7946 25.5874 36.3346 26.1274 36.3346 26.7934Z" stroke="#338DC8" stroke-width="1.01"/>
<path fill-rule="evenodd" clip-rule="evenodd" d="M14.7832 50.325H26.6582C29.7272 50.325 32.2712 49.8 34.2912 48.75C36.3092 47.701 37.9262 46.429 39.1372 44.933C40.3492 43.439 41.1982 41.824 41.6822 40.086C42.1672 38.35 42.4092 36.754 42.4092 35.3C42.4092 33.928 42.1852 32.373 41.7422 30.635C41.2982 28.899 40.4902 27.263 39.3192 25.728C38.1482 24.194 36.5512 22.901 34.5332 21.85C32.5132 20.802 29.9292 20.275 26.7782 20.275H14.7832V50.325ZM0.0012207 79.889V6.34204H24.9612C29.8072 6.34204 34.2312 6.98904 38.2292 8.28004C42.2282 9.57304 45.6202 11.43 48.4072 13.854C51.1942 16.277 53.3532 19.266 54.8902 22.82C56.4232 26.375 57.1912 30.374 57.1912 34.816C57.1912 37.239 56.9502 39.662 56.4652 42.085C55.9792 44.509 55.2112 46.852 54.1622 49.113C53.1122 51.375 51.7402 53.456 50.0422 55.353C48.3462 57.252 46.3262 58.888 43.9842 60.26C45.7602 63.089 73.7112 101.376 75.8922 104.769C64.8502 104.769 54.4632 99.546 47.8802 90.681C39.9592 80.013 30.2222 67.089 28.3542 64.259H27.1422H14.7832V94.672C6.61922 94.672 0.0012207 88.054 0.0012207 79.889Z" fill="#338DC8"/>
</g>
</svg>
