<svg width="439" height="168" viewBox="0 0 439 168" fill="none" xmlns="http://www.w3.org/2000/svg">
<path fill-rule="evenodd" clip-rule="evenodd" d="M99.8672 58.5634C98.8952 56.7824 97.4372 55.4654 95.4932 54.6144C93.5492 53.7644 91.6452 53.3384 89.7832 53.3384C87.5962 53.3384 85.5302 53.7644 83.5862 54.6144C81.6422 55.4654 79.9812 56.6004 78.6042 58.0164C77.2262 59.4354 76.1332 61.0544 75.3242 62.8764C74.5132 64.6994 74.1092 66.5824 74.1092 68.5264V69.0124C76.1332 68.2034 78.3012 67.3324 80.6092 66.4004C82.9182 65.4704 85.2262 64.5174 87.5342 63.5444C89.8432 62.5734 92.0492 61.6614 94.1572 60.8114C96.2622 59.9604 98.1662 59.2124 99.8672 58.5634ZM110.073 88.9384C107.561 91.2074 104.524 92.9894 100.96 94.2844C97.3952 95.5794 93.7502 96.2284 90.0252 96.2284C86.2172 96.2284 82.6332 95.5184 79.2732 94.1024C75.9102 92.6864 72.9942 90.7424 70.5252 88.2704C68.0532 85.8004 66.0902 82.9244 64.6322 79.6444C63.1742 76.3634 62.4452 72.8604 62.4452 69.1344C62.4452 65.4094 63.1742 61.9044 64.6322 58.6244C66.0902 55.3434 68.0532 52.4694 70.5252 49.9984C72.9942 47.5274 75.8712 45.5844 79.1512 44.1664C82.4312 42.7494 85.8942 42.0394 89.5392 42.0394C95.3712 42.0394 100.493 43.8014 104.909 47.3244C109.323 50.8484 112.461 55.4864 114.325 61.2364C111.895 62.1284 109.08 63.2014 105.881 64.4564C102.68 65.7124 99.3392 67.0284 95.8572 68.4054C92.3742 69.7834 88.8902 71.1804 85.4092 72.5964C81.9252 74.0154 78.7262 75.2904 75.8102 76.4244C77.1862 78.9354 79.0912 80.9614 81.5202 82.4994C83.9502 84.0384 86.7032 84.8074 89.7832 84.8074C91.8882 84.8074 94.0142 84.4244 96.1612 83.6534C98.3062 82.8844 100.068 81.8514 101.447 80.5554L110.073 88.9384Z" fill="white"/>
<path fill-rule="evenodd" clip-rule="evenodd" d="M126.821 68.8911C126.821 71.1601 127.205 73.2651 127.975 75.2091C128.744 77.1531 129.838 78.8351 131.256 80.2511C132.672 81.6691 134.354 82.7841 136.298 83.5931C138.242 84.4031 140.387 84.8081 142.738 84.8081C145.086 84.8081 147.233 84.4031 149.177 83.5931C151.121 82.7841 152.801 81.6481 154.219 80.1901C155.635 78.7321 156.729 77.0321 157.5 75.0871C158.269 73.1431 158.654 71.0781 158.654 68.8911C158.654 66.7041 158.269 64.6601 157.5 62.7551C156.729 60.8531 155.635 59.2131 154.219 57.8341C152.801 56.4581 151.121 55.3651 149.177 54.5541C147.233 53.7451 145.086 53.3391 142.738 53.3391C140.387 53.3391 138.242 53.7241 136.298 54.4931C134.354 55.2641 132.672 56.3571 131.256 57.7741C129.838 59.1921 128.744 60.8531 127.975 62.7551C127.205 64.6601 126.821 66.7041 126.821 68.8911ZM115.036 69.6201C115.036 65.8951 115.765 62.3511 117.223 58.9891C118.681 55.6281 120.644 52.6921 123.115 50.1801C125.585 47.6701 128.462 45.6651 131.742 44.1661C135.022 42.6681 138.485 41.9181 142.13 41.9181C144.56 41.9181 146.747 42.2221 148.691 42.8291C150.635 43.4371 152.315 44.1471 153.734 44.9551C155.15 45.7661 156.264 46.5961 157.074 47.4461C157.883 48.2971 158.411 48.9651 158.654 49.4511L159.14 43.2541H170.44V94.8921H158.654V91.4901C158.654 91.0861 158.673 90.7001 158.715 90.3361C158.755 89.9711 158.776 89.7091 158.776 89.5461C158.451 89.9521 157.883 90.5391 157.074 91.3081C156.264 92.0781 155.171 92.8271 153.794 93.5561C152.416 94.2851 150.776 94.9111 148.873 95.4391C146.969 95.9651 144.761 96.2281 142.252 96.2281C138.282 96.2281 134.637 95.4991 131.317 94.0411C127.994 92.5831 125.12 90.6401 122.69 88.2091C120.26 85.7801 118.377 82.9661 117.04 79.7651C115.704 76.5661 115.036 73.1851 115.036 69.6201Z" fill="white"/>
<mask id="mask0" mask-type="alpha" maskUnits="userSpaceOnUse" x="0" y="0" width="432" height="122">
<path fill-rule="evenodd" clip-rule="evenodd" d="M0 122H432V0H0V122Z" fill="white"/>
</mask>
<g mask="url(#mask0)">
<path fill-rule="evenodd" clip-rule="evenodd" d="M175.777 94.892H187.319V0H175.777V94.892Z" fill="white"/>
<path fill-rule="evenodd" clip-rule="evenodd" d="M192.656 94.892H204.32V43.254H192.656V94.892ZM191.32 23.207C191.32 21.102 192.088 19.361 193.628 17.982C195.167 16.606 196.828 15.917 198.61 15.917C200.391 15.917 202.031 16.606 203.531 17.982C205.029 19.361 205.778 21.102 205.778 23.207C205.778 25.394 205.029 27.156 203.531 28.492C202.031 29.829 200.391 30.497 198.61 30.497C196.828 30.497 195.167 29.829 193.628 28.492C192.088 27.156 191.32 25.394 191.32 23.207Z" fill="white"/>
<path fill-rule="evenodd" clip-rule="evenodd" d="M220.161 68.8911C220.161 71.1601 220.544 73.2651 221.315 75.2091C222.084 77.1531 223.178 78.8351 224.596 80.2511C226.012 81.6691 227.693 82.7841 229.638 83.5931C231.582 84.4031 233.726 84.8081 236.077 84.8081C238.426 84.8081 240.592 84.4031 242.577 83.5931C244.561 82.7841 246.263 81.6481 247.681 80.1901C249.097 78.7321 250.19 77.0321 250.961 75.0871C251.729 73.1431 252.115 71.0781 252.115 68.8911C252.115 66.7041 251.729 64.6601 250.961 62.7551C250.19 60.8531 249.097 59.2131 247.681 57.8341C246.263 56.4581 244.561 55.3651 242.577 54.5541C240.592 53.7451 238.426 53.3391 236.077 53.3391C233.726 53.3391 231.582 53.7241 229.638 54.4931C227.693 55.2641 226.012 56.3571 224.596 57.7741C223.178 59.1921 222.084 60.8531 221.315 62.7551C220.544 64.6601 220.161 66.7041 220.161 68.8911ZM208.497 69.3771C208.497 65.4891 209.183 61.8651 210.562 58.5031C211.938 55.1421 213.822 52.2261 216.212 49.7551C218.6 47.2851 221.394 45.3621 224.596 43.9831C227.794 42.6071 231.218 41.9181 234.862 41.9181C237.615 41.9181 240.045 42.2831 242.152 43.0121C244.258 43.7411 246.019 44.5511 247.437 45.4411C248.853 46.3341 249.947 47.1841 250.718 47.9931C251.487 48.8041 251.952 49.2891 252.115 49.4511C252.115 48.5601 252.195 47.5891 252.358 46.5351C252.519 45.4831 252.601 44.3901 252.601 43.2541H263.779V92.2191C263.779 96.5931 263.09 100.5 261.714 103.944C260.336 107.386 258.412 110.262 255.942 112.57C253.471 114.879 250.515 116.641 247.073 117.855C243.629 119.071 239.844 119.678 235.713 119.678C232.554 119.678 229.778 119.353 227.39 118.706C225 118.057 222.852 117.206 220.95 116.155C219.047 115.101 217.306 113.926 215.725 112.631C214.146 111.334 212.628 110.037 211.17 108.743L218.703 100.846C220.97 102.951 223.399 104.752 225.993 106.252C228.584 107.75 231.743 108.5 235.47 108.5C240.491 108.5 244.501 107.285 247.498 104.855C250.494 102.425 251.994 98.9811 251.994 94.5281V93.1301C251.994 92.6041 252.033 92.0581 252.115 91.4901C252.115 90.7611 252.195 90.1141 252.358 89.5461C252.519 88.9801 252.601 88.4941 252.601 88.0881C251.872 88.8991 251.001 89.7891 249.989 90.7611C248.975 91.7331 247.761 92.6251 246.344 93.4341C244.926 94.2451 243.286 94.9111 241.423 95.4391C239.558 95.9651 237.414 96.2281 234.983 96.2281C231.096 96.2281 227.53 95.5391 224.292 94.1631C221.051 92.7871 218.257 90.8831 215.908 88.4531C213.557 86.0221 211.735 83.1881 210.44 79.9481C209.144 76.7091 208.497 73.1851 208.497 69.3771Z" fill="white"/>
<path fill-rule="evenodd" clip-rule="evenodd" d="M268.116 43.2543H278.321C278.483 46.1703 278.665 48.5403 278.868 50.3623C279.069 52.1853 279.252 54.2313 279.415 56.4983C281.277 52.1243 283.911 48.6003 287.312 45.9273C290.715 43.2543 294.967 41.9183 300.07 41.9183C305.335 41.9183 309.526 43.3573 312.645 46.2313C315.762 49.1073 317.403 52.8533 317.566 57.4703V94.8923H306.023V62.9373C305.86 60.4273 304.97 58.2593 303.35 56.4373C301.729 54.6143 299.22 53.6243 295.817 53.4603C293.468 53.4603 291.302 53.8853 289.317 54.7363C287.332 55.5873 285.631 56.7413 284.215 58.1993C282.796 59.6573 281.703 61.4003 280.933 63.4233C280.163 65.4493 279.779 67.6363 279.779 69.9843V94.8923H268.116V43.2543Z" fill="white"/>
<path fill-rule="evenodd" clip-rule="evenodd" d="M358.679 58.5634C357.707 56.7824 356.249 55.4654 354.305 54.6144C352.362 53.7644 350.457 53.3384 348.595 53.3384C346.408 53.3384 344.342 53.7644 342.399 54.6144C340.454 55.4654 338.793 56.6004 337.417 58.0164C336.038 59.4354 334.946 61.0544 334.136 62.8764C333.325 64.6994 332.921 66.5824 332.921 68.5264V69.0124C334.946 68.2034 337.114 67.3324 339.422 66.4004C341.73 65.4704 344.038 64.5174 346.347 63.5444C348.656 62.5734 350.862 61.6614 352.969 60.8114C355.075 59.9604 356.979 59.2124 358.679 58.5634ZM368.885 88.9384C366.373 91.2074 363.336 92.9894 359.773 94.2844C356.207 95.5794 352.563 96.2284 348.838 96.2284C345.03 96.2284 341.446 95.5184 338.085 94.1024C334.723 92.6864 331.807 90.7424 329.337 88.2704C326.866 85.8004 324.903 82.9244 323.445 79.6444C321.987 76.3634 321.257 72.8604 321.257 69.1344C321.257 65.4094 321.987 61.9044 323.445 58.6244C324.903 55.3434 326.866 52.4694 329.337 49.9984C331.807 47.5274 334.683 45.5844 337.964 44.1664C341.244 42.7494 344.707 42.0394 348.352 42.0394C354.184 42.0394 359.306 43.8014 363.722 47.3244C368.136 50.8484 371.274 55.4864 373.138 61.2364C370.708 62.1284 367.893 63.2014 364.694 64.4564C361.492 65.7124 358.152 67.0284 354.67 68.4054C351.186 69.7834 347.702 71.1804 344.221 72.5964C340.738 74.0154 337.538 75.2904 334.622 76.4244C335.998 78.9354 337.903 80.9614 340.333 82.4994C342.763 84.0384 345.516 84.8074 348.595 84.8074C350.7 84.8074 352.826 84.4244 354.974 83.6534C357.118 82.8844 358.881 81.8514 360.259 80.5554L368.885 88.9384Z" fill="white"/>
<path fill-rule="evenodd" clip-rule="evenodd" d="M386.634 68.8911C386.634 71.1601 387.017 73.2651 387.788 75.2091C388.557 77.1531 389.651 78.8351 391.069 80.2511C392.485 81.6691 394.166 82.7841 396.111 83.5931C398.055 84.4031 400.199 84.8081 402.55 84.8081C404.899 84.8081 407.065 84.4031 409.05 83.5931C411.034 82.7841 412.736 81.6481 414.154 80.1901C415.57 78.7321 416.663 77.0321 417.434 75.0871C418.202 73.1431 418.588 71.0781 418.588 68.8911C418.588 66.7041 418.202 64.6601 417.434 62.7551C416.663 60.8531 415.57 59.2131 414.154 57.8341C412.736 56.4581 411.034 55.3651 409.05 54.5541C407.065 53.7451 404.899 53.3391 402.55 53.3391C400.199 53.3391 398.055 53.7241 396.111 54.4931C394.166 55.2641 392.485 56.3571 391.069 57.7741C389.651 59.1921 388.557 60.8531 387.788 62.7551C387.017 64.6601 386.634 66.7041 386.634 68.8911ZM374.97 69.1341C374.97 65.0851 375.638 61.4001 376.975 58.0781C378.311 54.7571 380.173 51.9021 382.564 49.5121C384.951 47.1231 387.746 45.2591 390.946 43.9231C394.146 42.5861 397.649 41.9181 401.456 41.9181C404.048 41.9181 406.317 42.2031 408.261 42.7681C410.204 43.3361 411.863 44.0251 413.242 44.8341C414.618 45.6441 415.733 46.5161 416.583 47.4461C417.434 48.3781 418.102 49.1681 418.588 49.8151V9.15527e-05H430.252V94.8921H418.588V91.4901C418.588 91.0861 418.628 90.6401 418.709 90.1541C418.789 89.6671 418.831 89.3031 418.831 89.0601C418.102 89.7891 417.21 90.5781 416.158 91.4291C415.105 92.2801 413.85 93.0701 412.392 93.7991C410.934 94.5281 409.293 95.1141 407.471 95.5601C405.649 96.0041 403.562 96.2281 401.214 96.2281C397.082 96.2281 393.377 95.5181 390.097 94.1021C386.816 92.6861 384.062 90.7421 381.834 88.2701C379.606 85.8001 377.905 82.9241 376.732 79.6441C375.556 76.3631 374.97 72.8611 374.97 69.1341Z" fill="white"/>
<path d="M23.8911 53.0937V43.4157H30.2211" stroke="white" stroke-width="1.01"/>
<path d="M23.8911 20.2753V26.7933H33.9231" stroke="white" stroke-width="1.01"/>
<path d="M14.7832 30.7343H31.0562" stroke="white" stroke-width="1.01"/>
<path d="M14.7832 34.8081H24.7272" stroke="white" stroke-width="1.01"/>
<path d="M14.7832 38.8549H35.5952" stroke="white" stroke-width="1.01"/>
<path fill-rule="evenodd" clip-rule="evenodd" d="M32.6323 43.3183C32.6323 43.9843 32.0923 44.5243 31.4263 44.5243C30.7603 44.5243 30.2203 43.9843 30.2203 43.3183C30.2203 42.6523 30.7603 42.1123 31.4263 42.1123C32.0923 42.1123 32.6323 42.6523 32.6323 43.3183Z" stroke="white" stroke-width="1.01"/>
<path fill-rule="evenodd" clip-rule="evenodd" d="M38.0062 38.8549C38.0062 39.5209 37.4662 40.0609 36.8002 40.0609C36.1342 40.0609 35.5942 39.5209 35.5942 38.8549C35.5942 38.1889 36.1342 37.6489 36.8002 37.6489C37.4662 37.6489 38.0062 38.1889 38.0062 38.8549Z" stroke="white" stroke-width="1.01"/>
<path fill-rule="evenodd" clip-rule="evenodd" d="M27.1392 34.8081C27.1392 35.4741 26.5992 36.0141 25.9332 36.0141C25.2672 36.0141 24.7272 35.4741 24.7272 34.8081C24.7272 34.1421 25.2672 33.6021 25.9332 33.6021C26.5992 33.6021 27.1392 34.1421 27.1392 34.8081Z" stroke="white" stroke-width="1.01"/>
<path fill-rule="evenodd" clip-rule="evenodd" d="M33.4683 30.7343C33.4683 31.4003 32.9283 31.9403 32.2623 31.9403C31.5963 31.9403 31.0563 31.4003 31.0563 30.7343C31.0563 30.0683 31.5963 29.5283 32.2623 29.5283C32.9283 29.5283 33.4683 30.0683 33.4683 30.7343Z" stroke="white" stroke-width="1.01"/>
<path fill-rule="evenodd" clip-rule="evenodd" d="M36.3345 26.7934C36.3345 27.4594 35.7945 27.9994 35.1285 27.9994C34.4625 27.9994 33.9225 27.4594 33.9225 26.7934C33.9225 26.1274 34.4625 25.5874 35.1285 25.5874C35.7945 25.5874 36.3345 26.1274 36.3345 26.7934Z" stroke="white" stroke-width="1.01"/>
<path fill-rule="evenodd" clip-rule="evenodd" d="M14.7832 50.3251H26.6582C29.7272 50.3251 32.2712 49.8001 34.2912 48.7501C36.3092 47.7011 37.9262 46.4291 39.1372 44.9331C40.3492 43.4391 41.1982 41.8241 41.6822 40.0861C42.1672 38.3501 42.4092 36.7541 42.4092 35.3001C42.4092 33.9281 42.1852 32.3731 41.7422 30.6351C41.2982 28.8991 40.4902 27.2631 39.3192 25.7281C38.1482 24.1941 36.5512 22.9011 34.5332 21.8501C32.5132 20.8021 29.9292 20.2751 26.7782 20.2751H14.7832V50.3251ZM0.0012207 79.8891V6.3421H24.9612C29.8072 6.3421 34.2312 6.9891 38.2292 8.2801C42.2282 9.5731 45.6202 11.4301 48.4072 13.8541C51.1942 16.2771 53.3532 19.2661 54.8902 22.8201C56.4232 26.3751 57.1912 30.3741 57.1912 34.8161C57.1912 37.2391 56.9502 39.6621 56.4652 42.0851C55.9792 44.5091 55.2112 46.8521 54.1622 49.1131C53.1122 51.3751 51.7402 53.4561 50.0422 55.3531C48.3462 57.2521 46.3262 58.8881 43.9842 60.2601C45.7602 63.0891 73.7112 101.376 75.8922 104.769C64.8502 104.769 54.4632 99.5461 47.8802 90.6811C39.9592 80.0131 30.2222 67.0891 28.3542 64.2591H27.1422H14.7832V94.6721C6.61922 94.6721 0.0012207 88.0541 0.0012207 79.8891Z" fill="#338DC8"/>
</g>
<path d="M203.208 142.616C202.32 142.16 201.348 141.764 200.292 141.428C199.236 141.092 198.216 140.924 197.232 140.924C195.816 140.924 194.688 141.248 193.848 141.896C193.032 142.544 192.624 143.42 192.624 144.524C192.624 145.316 192.888 145.988 193.416 146.54C193.968 147.092 194.664 147.584 195.504 148.016C196.368 148.424 197.28 148.808 198.24 149.168C199.32 149.576 200.364 150.068 201.372 150.644C202.38 151.22 203.208 152 203.856 152.984C204.528 153.944 204.864 155.24 204.864 156.872C204.864 158.264 204.516 159.524 203.82 160.652C203.124 161.756 202.14 162.644 200.868 163.316C199.596 163.964 198.084 164.288 196.332 164.288C194.604 164.288 192.996 164.012 191.508 163.46C190.044 162.908 188.796 162.272 187.764 161.552L189.312 158.78C190.152 159.428 191.184 159.992 192.408 160.472C193.656 160.952 194.844 161.192 195.972 161.192C196.812 161.192 197.628 161.048 198.42 160.76C199.236 160.472 199.908 160.016 200.436 159.392C200.964 158.744 201.228 157.916 201.228 156.908C201.228 156.044 200.988 155.312 200.508 154.712C200.028 154.112 199.404 153.608 198.636 153.2C197.892 152.768 197.076 152.384 196.188 152.048C195.372 151.76 194.544 151.424 193.704 151.04C192.864 150.656 192.084 150.2 191.364 149.672C190.668 149.12 190.104 148.448 189.672 147.656C189.24 146.864 189.024 145.904 189.024 144.776C189.024 143.408 189.348 142.22 189.996 141.212C190.668 140.18 191.58 139.376 192.732 138.8C193.884 138.2 195.216 137.876 196.728 137.828C198.384 137.828 199.848 138.032 201.12 138.44C202.416 138.848 203.556 139.34 204.54 139.916L203.208 142.616ZM216.277 151.004C216.277 149.204 216.613 147.5 217.285 145.892C217.981 144.284 218.941 142.868 220.165 141.644C221.389 140.42 222.793 139.46 224.377 138.764C225.985 138.044 227.701 137.684 229.525 137.684C231.349 137.684 233.065 138.044 234.673 138.764C236.305 139.46 237.733 140.42 238.957 141.644C240.181 142.868 241.141 144.284 241.837 145.892C242.533 147.5 242.881 149.204 242.881 151.004C242.881 152.852 242.533 154.58 241.837 156.188C241.141 157.772 240.181 159.176 238.957 160.4C237.733 161.624 236.305 162.584 234.673 163.28C233.065 163.952 231.349 164.288 229.525 164.288C227.701 164.288 225.985 163.952 224.377 163.28C222.793 162.608 221.389 161.672 220.165 160.472C218.941 159.272 217.981 157.868 217.285 156.26C216.613 154.628 216.277 152.876 216.277 151.004ZM219.877 151.04C219.877 152.408 220.129 153.692 220.633 154.892C221.137 156.068 221.833 157.112 222.721 158.024C223.609 158.936 224.641 159.644 225.817 160.148C226.993 160.652 228.265 160.904 229.633 160.904C231.433 160.904 233.053 160.472 234.493 159.608C235.957 158.72 237.121 157.532 237.985 156.044C238.849 154.532 239.281 152.852 239.281 151.004C239.281 149.636 239.029 148.352 238.525 147.152C238.021 145.928 237.325 144.86 236.437 143.948C235.549 143.036 234.517 142.328 233.341 141.824C232.165 141.296 230.905 141.032 229.561 141.032C227.737 141.032 226.093 141.488 224.629 142.4C223.165 143.312 222.001 144.524 221.137 146.036C220.297 147.548 219.877 149.216 219.877 151.04ZM255.964 137.972H271.408V141.32H259.456V149.6H269.932V152.948H259.456V164H255.964V137.972ZM282.456 137.972H299.736V141.32H292.752V164H289.26V141.32H282.456V137.972ZM310.249 138.08H314.317L321.013 157.016L325.549 145.244L322.777 138.08H326.233L333.469 156.62L339.877 138.08H343.621L333.361 165.152L327.277 149.636L320.617 165.188L310.249 138.08ZM350.136 164L361.512 136.892H361.728L373.104 164H369.072L366.372 157.16H356.364L353.592 164H350.136ZM357.588 154.136H365.184L361.476 144.668L357.588 154.136ZM392.119 137.972C393.847 137.972 395.407 138.284 396.799 138.908C398.191 139.508 399.295 140.42 400.111 141.644C400.927 142.844 401.335 144.308 401.335 146.036C401.335 147.524 400.999 148.964 400.327 150.356C399.679 151.748 398.575 152.804 397.015 153.524L403.567 164H399.499L393.343 154.388C393.079 154.412 392.803 154.424 392.515 154.424H388.663V164H385.171V137.972H392.119ZM392.443 151.04C393.835 151.04 394.903 150.788 395.647 150.284C396.415 149.756 396.955 149.12 397.267 148.376C397.579 147.608 397.735 146.876 397.735 146.18C397.735 145.484 397.567 144.764 397.231 144.02C396.895 143.276 396.355 142.64 395.611 142.112C394.891 141.584 393.919 141.32 392.695 141.32H388.663V151.04H392.443ZM416.136 137.972H433.056V141.32H419.628V149.24H431.616V152.588H419.628V160.616H433.56V164H416.136V137.972Z" fill="white"/>
</svg>
