<svg width="447" height="136" viewBox="0 0 447 136" fill="none" xmlns="http://www.w3.org/2000/svg">
<g filter="url(#filter0_d)">
<path fill-rule="evenodd" clip-rule="evenodd" d="M105.867 63.5634C104.895 61.7824 103.437 60.4654 101.493 59.6144C99.5492 58.7644 97.6452 58.3384 95.7832 58.3384C93.5962 58.3384 91.5302 58.7644 89.5862 59.6144C87.6422 60.4654 85.9812 61.6004 84.6042 63.0164C83.2262 64.4354 82.1332 66.0544 81.3242 67.8764C80.5132 69.6994 80.1092 71.5824 80.1092 73.5264V74.0124C82.1332 73.2034 84.3012 72.3324 86.6092 71.4004C88.9182 70.4704 91.2262 69.5174 93.5342 68.5444C95.8432 67.5734 98.0492 66.6614 100.157 65.8114C102.262 64.9604 104.166 64.2124 105.867 63.5634ZM116.073 93.9384C113.561 96.2074 110.524 97.9894 106.96 99.2844C103.395 100.579 99.7502 101.228 96.0252 101.228C92.2172 101.228 88.6332 100.518 85.2732 99.1024C81.9102 97.6864 78.9942 95.7424 76.5252 93.2704C74.0532 90.8004 72.0902 87.9244 70.6322 84.6444C69.1742 81.3634 68.4452 77.8604 68.4452 74.1344C68.4452 70.4094 69.1742 66.9044 70.6322 63.6244C72.0902 60.3434 74.0532 57.4694 76.5252 54.9984C78.9942 52.5274 81.8712 50.5844 85.1512 49.1664C88.4312 47.7494 91.8942 47.0394 95.5392 47.0394C101.371 47.0394 106.493 48.8014 110.909 52.3244C115.323 55.8484 118.461 60.4864 120.325 66.2364C117.895 67.1284 115.08 68.2014 111.881 69.4564C108.68 70.7124 105.339 72.0284 101.857 73.4054C98.3742 74.7834 94.8902 76.1804 91.4092 77.5964C87.9252 79.0154 84.7262 80.2904 81.8102 81.4244C83.1862 83.9354 85.0912 85.9614 87.5202 87.4994C89.9502 89.0384 92.7032 89.8074 95.7832 89.8074C97.8882 89.8074 100.014 89.4244 102.161 88.6534C104.306 87.8844 106.068 86.8514 107.447 85.5554L116.073 93.9384Z" fill="white"/>
<path fill-rule="evenodd" clip-rule="evenodd" d="M132.821 73.8911C132.821 76.1601 133.205 78.2651 133.975 80.2091C134.744 82.1531 135.838 83.8351 137.256 85.2511C138.672 86.6691 140.354 87.7841 142.298 88.5931C144.242 89.4031 146.387 89.8081 148.738 89.8081C151.086 89.8081 153.233 89.4031 155.177 88.5931C157.121 87.7841 158.801 86.6481 160.219 85.1901C161.635 83.7321 162.729 82.0321 163.5 80.0871C164.269 78.1431 164.654 76.0781 164.654 73.8911C164.654 71.7041 164.269 69.6601 163.5 67.7551C162.729 65.8531 161.635 64.2131 160.219 62.8341C158.801 61.4581 157.121 60.3651 155.177 59.5541C153.233 58.7451 151.086 58.3391 148.738 58.3391C146.387 58.3391 144.242 58.7241 142.298 59.4931C140.354 60.2641 138.672 61.3571 137.256 62.7741C135.838 64.1921 134.744 65.8531 133.975 67.7551C133.205 69.6601 132.821 71.7041 132.821 73.8911ZM121.036 74.6201C121.036 70.8951 121.765 67.3511 123.223 63.9891C124.681 60.6281 126.644 57.6921 129.115 55.1801C131.585 52.6701 134.462 50.6651 137.742 49.1661C141.022 47.6681 144.485 46.9181 148.13 46.9181C150.56 46.9181 152.747 47.2221 154.691 47.8291C156.635 48.4371 158.315 49.1471 159.734 49.9551C161.15 50.7661 162.264 51.5961 163.074 52.4461C163.883 53.2971 164.411 53.9651 164.654 54.4511L165.14 48.2541H176.44V99.8921H164.654V96.4901C164.654 96.0861 164.673 95.7001 164.715 95.3361C164.755 94.9711 164.776 94.7091 164.776 94.5461C164.451 94.9521 163.883 95.5391 163.074 96.3081C162.264 97.0781 161.171 97.8271 159.794 98.5561C158.416 99.2851 156.776 99.9111 154.873 100.439C152.969 100.965 150.761 101.228 148.252 101.228C144.282 101.228 140.637 100.499 137.317 99.0411C133.994 97.5831 131.12 95.6401 128.69 93.2091C126.26 90.7801 124.377 87.9661 123.04 84.7651C121.704 81.5661 121.036 78.1851 121.036 74.6201Z" fill="white"/>
<mask id="mask0" mask-type="alpha" maskUnits="userSpaceOnUse" x="6" y="5" width="432" height="122">
<path fill-rule="evenodd" clip-rule="evenodd" d="M6 127H438V5H6V127Z" fill="white"/>
</mask>
<g mask="url(#mask0)">
<path fill-rule="evenodd" clip-rule="evenodd" d="M181.777 99.892H193.319V5H181.777V99.892Z" fill="white"/>
<path fill-rule="evenodd" clip-rule="evenodd" d="M198.656 99.892H210.32V48.254H198.656V99.892ZM197.32 28.207C197.32 26.102 198.088 24.361 199.628 22.982C201.167 21.606 202.828 20.917 204.61 20.917C206.391 20.917 208.031 21.606 209.531 22.982C211.029 24.361 211.778 26.102 211.778 28.207C211.778 30.394 211.029 32.156 209.531 33.492C208.031 34.829 206.391 35.497 204.61 35.497C202.828 35.497 201.167 34.829 199.628 33.492C198.088 32.156 197.32 30.394 197.32 28.207Z" fill="white"/>
<path fill-rule="evenodd" clip-rule="evenodd" d="M226.161 73.8911C226.161 76.1601 226.544 78.2651 227.315 80.2091C228.084 82.1531 229.178 83.8351 230.596 85.2511C232.012 86.6691 233.693 87.7841 235.638 88.5931C237.582 89.4031 239.726 89.8081 242.077 89.8081C244.426 89.8081 246.592 89.4031 248.577 88.5931C250.561 87.7841 252.263 86.6481 253.681 85.1901C255.097 83.7321 256.19 82.0321 256.961 80.0871C257.729 78.1431 258.115 76.0781 258.115 73.8911C258.115 71.7041 257.729 69.6601 256.961 67.7551C256.19 65.8531 255.097 64.2131 253.681 62.8341C252.263 61.4581 250.561 60.3651 248.577 59.5541C246.592 58.7451 244.426 58.3391 242.077 58.3391C239.726 58.3391 237.582 58.7241 235.638 59.4931C233.693 60.2641 232.012 61.3571 230.596 62.7741C229.178 64.1921 228.084 65.8531 227.315 67.7551C226.544 69.6601 226.161 71.7041 226.161 73.8911ZM214.497 74.3771C214.497 70.4891 215.183 66.8651 216.562 63.5031C217.938 60.1421 219.822 57.2261 222.212 54.7551C224.6 52.2851 227.394 50.3621 230.596 48.9831C233.794 47.6071 237.218 46.9181 240.862 46.9181C243.615 46.9181 246.045 47.2831 248.152 48.0121C250.258 48.7411 252.019 49.5511 253.437 50.4411C254.853 51.3341 255.947 52.1841 256.718 52.9931C257.487 53.8041 257.952 54.2891 258.115 54.4511C258.115 53.5601 258.195 52.5891 258.358 51.5351C258.519 50.4831 258.601 49.3901 258.601 48.2541H269.779V97.2191C269.779 101.593 269.09 105.5 267.714 108.944C266.336 112.386 264.412 115.262 261.942 117.57C259.471 119.879 256.515 121.641 253.073 122.855C249.629 124.071 245.844 124.678 241.713 124.678C238.554 124.678 235.778 124.353 233.39 123.706C231 123.057 228.852 122.206 226.95 121.155C225.047 120.101 223.306 118.926 221.725 117.631C220.146 116.334 218.628 115.037 217.17 113.743L224.703 105.846C226.97 107.951 229.399 109.752 231.993 111.252C234.584 112.75 237.743 113.5 241.47 113.5C246.491 113.5 250.501 112.285 253.498 109.855C256.494 107.425 257.994 103.981 257.994 99.5281V98.1301C257.994 97.6041 258.033 97.0581 258.115 96.4901C258.115 95.7611 258.195 95.1141 258.358 94.5461C258.519 93.9801 258.601 93.4941 258.601 93.0881C257.872 93.8991 257.001 94.7891 255.989 95.7611C254.975 96.7331 253.761 97.6251 252.344 98.4341C250.926 99.2451 249.286 99.9111 247.423 100.439C245.558 100.965 243.414 101.228 240.983 101.228C237.096 101.228 233.53 100.539 230.292 99.1631C227.051 97.7871 224.257 95.8831 221.908 93.4531C219.557 91.0221 217.735 88.1881 216.44 84.9481C215.144 81.7091 214.497 78.1851 214.497 74.3771Z" fill="white"/>
<path fill-rule="evenodd" clip-rule="evenodd" d="M274.116 48.2543H284.321C284.483 51.1703 284.665 53.5403 284.868 55.3623C285.069 57.1853 285.252 59.2313 285.415 61.4983C287.277 57.1243 289.911 53.6003 293.312 50.9273C296.715 48.2543 300.967 46.9183 306.07 46.9183C311.335 46.9183 315.526 48.3573 318.645 51.2313C321.762 54.1073 323.403 57.8533 323.566 62.4703V99.8923H312.023V67.9373C311.86 65.4273 310.97 63.2593 309.35 61.4373C307.729 59.6143 305.22 58.6243 301.817 58.4603C299.468 58.4603 297.302 58.8853 295.317 59.7363C293.332 60.5873 291.631 61.7413 290.215 63.1993C288.796 64.6573 287.703 66.4003 286.933 68.4233C286.163 70.4493 285.779 72.6363 285.779 74.9843V99.8923H274.116V48.2543Z" fill="white"/>
<path fill-rule="evenodd" clip-rule="evenodd" d="M364.679 63.5634C363.707 61.7824 362.249 60.4654 360.305 59.6144C358.362 58.7644 356.457 58.3384 354.595 58.3384C352.408 58.3384 350.342 58.7644 348.399 59.6144C346.454 60.4654 344.793 61.6004 343.417 63.0164C342.038 64.4354 340.946 66.0544 340.136 67.8764C339.325 69.6994 338.921 71.5824 338.921 73.5264V74.0124C340.946 73.2034 343.114 72.3324 345.422 71.4004C347.73 70.4704 350.038 69.5174 352.347 68.5444C354.656 67.5734 356.862 66.6614 358.969 65.8114C361.075 64.9604 362.979 64.2124 364.679 63.5634ZM374.885 93.9384C372.373 96.2074 369.336 97.9894 365.773 99.2844C362.207 100.579 358.563 101.228 354.838 101.228C351.03 101.228 347.446 100.518 344.085 99.1024C340.723 97.6864 337.807 95.7424 335.337 93.2704C332.866 90.8004 330.903 87.9244 329.445 84.6444C327.987 81.3634 327.257 77.8604 327.257 74.1344C327.257 70.4094 327.987 66.9044 329.445 63.6244C330.903 60.3434 332.866 57.4694 335.337 54.9984C337.807 52.5274 340.683 50.5844 343.964 49.1664C347.244 47.7494 350.707 47.0394 354.352 47.0394C360.184 47.0394 365.306 48.8014 369.722 52.3244C374.136 55.8484 377.274 60.4864 379.138 66.2364C376.708 67.1284 373.893 68.2014 370.694 69.4564C367.492 70.7124 364.152 72.0284 360.67 73.4054C357.186 74.7834 353.702 76.1804 350.221 77.5964C346.738 79.0154 343.538 80.2904 340.622 81.4244C341.998 83.9354 343.903 85.9614 346.333 87.4994C348.763 89.0384 351.516 89.8074 354.595 89.8074C356.7 89.8074 358.826 89.4244 360.974 88.6534C363.118 87.8844 364.881 86.8514 366.259 85.5554L374.885 93.9384Z" fill="white"/>
<path fill-rule="evenodd" clip-rule="evenodd" d="M392.634 73.8911C392.634 76.1601 393.017 78.2651 393.788 80.2091C394.557 82.1531 395.651 83.8351 397.069 85.2511C398.485 86.6691 400.166 87.7841 402.111 88.5931C404.055 89.4031 406.199 89.8081 408.55 89.8081C410.899 89.8081 413.065 89.4031 415.05 88.5931C417.034 87.7841 418.736 86.6481 420.154 85.1901C421.57 83.7321 422.663 82.0321 423.434 80.0871C424.202 78.1431 424.588 76.0781 424.588 73.8911C424.588 71.7041 424.202 69.6601 423.434 67.7551C422.663 65.8531 421.57 64.2131 420.154 62.8341C418.736 61.4581 417.034 60.3651 415.05 59.5541C413.065 58.7451 410.899 58.3391 408.55 58.3391C406.199 58.3391 404.055 58.7241 402.111 59.4931C400.166 60.2641 398.485 61.3571 397.069 62.7741C395.651 64.1921 394.557 65.8531 393.788 67.7551C393.017 69.6601 392.634 71.7041 392.634 73.8911ZM380.97 74.1341C380.97 70.0851 381.638 66.4001 382.975 63.0781C384.311 59.7571 386.173 56.9021 388.564 54.5121C390.951 52.1231 393.746 50.2591 396.946 48.9231C400.146 47.5861 403.649 46.9181 407.456 46.9181C410.048 46.9181 412.317 47.2031 414.261 47.7681C416.204 48.3361 417.863 49.0251 419.242 49.8341C420.618 50.6441 421.733 51.5161 422.583 52.4461C423.434 53.3781 424.102 54.1681 424.588 54.8151V5.00011H436.252V99.8921H424.588V96.4901C424.588 96.0861 424.628 95.6401 424.709 95.1541C424.789 94.6671 424.831 94.3031 424.831 94.0601C424.102 94.7891 423.21 95.5781 422.158 96.4291C421.105 97.2801 419.85 98.0701 418.392 98.7991C416.934 99.5281 415.293 100.114 413.471 100.56C411.649 101.004 409.562 101.228 407.214 101.228C403.082 101.228 399.377 100.518 396.097 99.1021C392.816 97.6861 390.062 95.7421 387.834 93.2701C385.606 90.8001 383.905 87.9241 382.732 84.6441C381.556 81.3631 380.97 77.8611 380.97 74.1341Z" fill="white"/>
<path d="M29.8911 58.0937V48.4157H36.2211" stroke="white" stroke-width="1.01"/>
<path d="M29.8911 25.2753V31.7933H39.9231" stroke="white" stroke-width="1.01"/>
<path d="M20.7832 35.7343H37.0562" stroke="white" stroke-width="1.01"/>
<path d="M20.7832 39.8081H30.7272" stroke="white" stroke-width="1.01"/>
<path d="M20.7832 43.8549H41.5952" stroke="white" stroke-width="1.01"/>
<path fill-rule="evenodd" clip-rule="evenodd" d="M38.6323 48.3183C38.6323 48.9843 38.0923 49.5243 37.4263 49.5243C36.7603 49.5243 36.2203 48.9843 36.2203 48.3183C36.2203 47.6523 36.7603 47.1123 37.4263 47.1123C38.0923 47.1123 38.6323 47.6523 38.6323 48.3183Z" stroke="white" stroke-width="1.01"/>
<path fill-rule="evenodd" clip-rule="evenodd" d="M44.0062 43.8549C44.0062 44.5209 43.4662 45.0609 42.8002 45.0609C42.1342 45.0609 41.5942 44.5209 41.5942 43.8549C41.5942 43.1889 42.1342 42.6489 42.8002 42.6489C43.4662 42.6489 44.0062 43.1889 44.0062 43.8549Z" stroke="white" stroke-width="1.01"/>
<path fill-rule="evenodd" clip-rule="evenodd" d="M33.1392 39.8081C33.1392 40.4741 32.5992 41.0141 31.9332 41.0141C31.2672 41.0141 30.7272 40.4741 30.7272 39.8081C30.7272 39.1421 31.2672 38.6021 31.9332 38.6021C32.5992 38.6021 33.1392 39.1421 33.1392 39.8081Z" stroke="white" stroke-width="1.01"/>
<path fill-rule="evenodd" clip-rule="evenodd" d="M39.4683 35.7343C39.4683 36.4003 38.9283 36.9403 38.2623 36.9403C37.5963 36.9403 37.0563 36.4003 37.0563 35.7343C37.0563 35.0683 37.5963 34.5283 38.2623 34.5283C38.9283 34.5283 39.4683 35.0683 39.4683 35.7343Z" stroke="white" stroke-width="1.01"/>
<path fill-rule="evenodd" clip-rule="evenodd" d="M42.3345 31.7934C42.3345 32.4594 41.7945 32.9994 41.1285 32.9994C40.4625 32.9994 39.9225 32.4594 39.9225 31.7934C39.9225 31.1274 40.4625 30.5874 41.1285 30.5874C41.7945 30.5874 42.3345 31.1274 42.3345 31.7934Z" stroke="white" stroke-width="1.01"/>
<path fill-rule="evenodd" clip-rule="evenodd" d="M20.7832 55.3251H32.6582C35.7272 55.3251 38.2712 54.8001 40.2912 53.7501C42.3092 52.7011 43.9262 51.4291 45.1372 49.9331C46.3492 48.4391 47.1982 46.8241 47.6822 45.0861C48.1672 43.3501 48.4092 41.7541 48.4092 40.3001C48.4092 38.9281 48.1852 37.3731 47.7422 35.6351C47.2982 33.8991 46.4902 32.2631 45.3192 30.7281C44.1482 29.1941 42.5512 27.9011 40.5332 26.8501C38.5132 25.8021 35.9292 25.2751 32.7782 25.2751H20.7832V55.3251ZM6.00122 84.8891V11.3421H30.9612C35.8072 11.3421 40.2312 11.9891 44.2292 13.2801C48.2282 14.5731 51.6202 16.4301 54.4072 18.8541C57.1942 21.2771 59.3532 24.2661 60.8902 27.8201C62.4232 31.3751 63.1912 35.3741 63.1912 39.8161C63.1912 42.2391 62.9502 44.6621 62.4652 47.0851C61.9792 49.5091 61.2112 51.8521 60.1622 54.1131C59.1122 56.3751 57.7402 58.4561 56.0422 60.3531C54.3462 62.2521 52.3262 63.8881 49.9842 65.2601C51.7602 68.0891 79.7112 106.376 81.8922 109.769C70.8502 109.769 60.4632 104.546 53.8802 95.6811C45.9592 85.0131 36.2222 72.0891 34.3542 69.2591H33.1422H20.7832V99.6721C12.6192 99.6721 6.00122 93.0541 6.00122 84.8891Z" fill="white"/>
</g>
</g>
<defs>
<filter id="filter0_d" x="0.0012207" y="0" width="446.251" height="135.678" filterUnits="userSpaceOnUse" color-interpolation-filters="sRGB">
<feFlood flood-opacity="0" result="BackgroundImageFix"/>
<feColorMatrix in="SourceAlpha" type="matrix" values="0 0 0 0 0 0 0 0 0 0 0 0 0 0 0 0 0 0 127 0"/>
<feOffset dx="2" dy="3"/>
<feGaussianBlur stdDeviation="4"/>
<feColorMatrix type="matrix" values="0 0 0 0 0 0 0 0 0 0 0 0 0 0 0 0 0 0 0.25 0"/>
<feBlend mode="normal" in2="BackgroundImageFix" result="effect1_dropShadow"/>
<feBlend mode="normal" in="SourceGraphic" in2="effect1_dropShadow" result="shape"/>
</filter>
</defs>
</svg>
