<svg width="194" height="206" viewBox="0 0 194 206" fill="none" xmlns="http://www.w3.org/2000/svg">
<g clip-path="url(#clip0)">
<rect width="193.3" height="205.7" transform="translate(0.200195 0.0996094)" fill="white" fill-opacity="0.01"/>
<path d="M169.4 179.499C169.426 178.42 169.866 177.392 170.629 176.628C171.393 175.865 172.421 175.425 173.5 175.399C174.489 175.413 175.47 175.228 176.386 174.856C177.302 174.484 178.134 173.932 178.834 173.232C179.533 172.533 180.085 171.701 180.457 170.785C180.829 169.869 181.014 168.888 181 167.899V23.8992C181 22.6527 180.505 21.4572 179.624 20.5758C178.742 19.6944 177.547 19.1992 176.3 19.1992H81.7002C80.4537 19.1992 79.2583 19.6944 78.3768 20.5758C77.4954 21.4572 77.0002 22.6527 77.0002 23.8992V167.899C77.0002 169.888 77.7904 171.796 79.1969 173.203C80.6035 174.609 82.5111 175.399 84.5002 175.399C85.5876 175.399 86.6305 175.831 87.3994 176.6C88.1683 177.369 88.6002 178.412 88.6002 179.499C88.6002 180.587 88.1683 181.629 87.3994 182.398C86.6305 183.167 85.5876 183.599 84.5002 183.599H80.2002C79.7846 183.599 79.3731 183.682 78.9904 183.844C78.6076 184.006 78.2613 184.244 77.9721 184.542C77.6829 184.841 77.4567 185.194 77.3069 185.582C77.1571 185.97 77.0868 186.384 77.1002 186.799V192.399C77.1002 193.221 77.4268 194.01 78.0082 194.591C78.5896 195.173 79.3781 195.499 80.2002 195.499H178.1C178.922 195.499 179.711 195.173 180.292 194.591C180.874 194.01 181.2 193.221 181.2 192.399V186.799C181.214 186.384 181.143 185.97 180.994 185.582C180.844 185.194 180.618 184.841 180.328 184.542C180.039 184.244 179.693 184.006 179.31 183.844C178.927 183.682 178.516 183.599 178.1 183.599H173.5C172.962 183.599 172.429 183.493 171.931 183.287C171.434 183.081 170.982 182.779 170.601 182.398C170.22 182.018 169.918 181.566 169.712 181.068C169.506 180.571 169.4 180.038 169.4 179.499Z" fill="#48CC8C"/>
<path d="M174.3 175.5H84.4003C82.5173 175.5 80.7113 174.752 79.3798 173.42C78.0483 172.089 77.3003 170.283 77.3003 168.4L77.3003 24C77.3003 22.7535 77.7955 21.558 78.6769 20.6766C79.5583 19.7952 80.7538 19.3 82.0003 19.3H176.6C177.847 19.3 179.042 19.7952 179.924 20.6766C180.805 21.558 181.3 22.7535 181.3 24L181.3 168.4C181.3 170.266 180.566 172.057 179.256 173.385C177.946 174.714 176.166 175.474 174.3 175.5Z" fill="#79F2C0"/>
<path d="M181.5 183.5H77.3003V195.49H181.5V183.5Z" fill="#48CC8C"/>
<path d="M160.5 155.6H97.8003V157.36H160.5V155.6Z" fill="#ADF8D3"/>
<path d="M160.5 148.6H97.8003V150.36H160.5V148.6Z" fill="#ADF8D3"/>
<path d="M160.5 141.6H97.8003V143.36H160.5V141.6Z" fill="#ADF8D3"/>
<path d="M160.5 134.6H97.8003V136.36H160.5V134.6Z" fill="#ADF8D3"/>
<path d="M141.6 54.7988H79.8003V92.3888H141.6V54.7988Z" fill="#ADF8D3"/>
<path d="M164.4 80.2C165.836 80.2 167 79.0359 167 77.6C167 76.1641 165.836 75 164.4 75C162.964 75 161.8 76.1641 161.8 77.6C161.8 79.0359 162.964 80.2 164.4 80.2Z" fill="#ADF8D3"/>
<path d="M164.4 89.7996C165.836 89.7996 167 88.6355 167 87.1996C167 85.7637 165.836 84.5996 164.4 84.5996C162.964 84.5996 161.8 85.7637 161.8 87.1996C161.8 88.6355 162.964 89.7996 164.4 89.7996Z" fill="#ADF8D3"/>
<path d="M164.4 67.4004C167.714 67.4004 170.4 64.7141 170.4 61.4004C170.4 58.0867 167.714 55.4004 164.4 55.4004C161.086 55.4004 158.4 58.0867 158.4 61.4004C158.4 64.7141 161.086 67.4004 164.4 67.4004Z" fill="#ADF8D3"/>
<path d="M176.3 19.1992H82.4003C81.0477 19.1992 79.7505 19.7365 78.7941 20.693C77.8376 21.6494 77.3003 22.9466 77.3003 24.2992V36.8992H181.4V24.2992C181.4 22.9466 180.863 21.6494 179.907 20.693C178.95 19.7365 177.653 19.1992 176.3 19.1992Z" fill="#ADF8D3"/>
<path d="M105.2 187.6C105.226 186.371 105.733 185.201 106.612 184.341C107.49 183.482 108.671 183 109.9 183C112.164 182.974 114.326 182.056 115.917 180.446C117.508 178.836 118.4 176.664 118.4 174.4V10.8004C118.4 9.38538 117.845 8.02681 116.854 7.01694C115.863 6.00707 114.515 5.42659 113.1 5.40039H5.6002C4.16803 5.40039 2.79452 5.96932 1.78182 6.98201C0.769122 7.99471 0.200195 9.36822 0.200195 10.8004V174.4C0.200042 176.664 1.09237 178.836 2.68362 180.446C4.27487 182.056 6.43671 182.974 8.7002 183C9.92958 183 11.1101 183.482 11.9887 184.341C12.8673 185.201 13.374 186.371 13.4002 187.6C13.4002 188.847 12.905 190.042 12.0236 190.924C11.1422 191.805 9.94671 192.3 8.7002 192.3H3.8002C2.87194 192.3 1.9817 192.669 1.32532 193.326C0.668944 193.982 0.300195 194.872 0.300195 195.8V202.2C0.286819 202.668 0.367464 203.134 0.537357 203.571C0.70725 204.007 0.962937 204.404 1.28928 204.74C1.61563 205.076 2.006 205.343 2.4373 205.525C2.86859 205.707 3.33203 205.801 3.8002 205.8H115.1C116.038 205.774 116.928 205.384 117.581 204.711C118.235 204.039 118.601 203.138 118.6 202.2V195.8C118.6 194.872 118.231 193.982 117.575 193.326C116.919 192.669 116.028 192.3 115.1 192.3H109.9C108.654 192.3 107.458 191.805 106.577 190.924C105.695 190.042 105.2 188.847 105.2 187.6Z" fill="#A5ADBA"/>
<path d="M110.4 183H8.20015C6.07841 183 4.04358 182.157 2.54329 180.657C1.043 179.157 0.20015 177.122 0.20015 175L0.20015 10.8C0.20015 9.36783 0.769073 7.99432 1.78177 6.98163C2.79446 5.96893 4.16798 5.40001 5.60014 5.40001H113C114.432 5.40001 115.806 5.96893 116.819 6.98163C117.831 7.99432 118.4 9.36783 118.4 10.8L118.4 175C118.4 177.122 117.557 179.157 116.057 180.657C114.557 182.157 112.522 183 110.4 183Z" fill="url(#paint0_linear)"/>
<path d="M77.3003 167.7V24.3004C77.3003 22.9478 77.8376 21.6506 78.794 20.6941C79.7505 19.7377 81.0477 19.2004 82.4003 19.2004H118.4V11.1004C118.4 9.58866 117.8 8.13884 116.731 7.06988C115.662 6.00092 114.212 5.40039 112.7 5.40039H5.90028C4.39657 5.4261 2.96164 6.03489 1.89821 7.09832C0.834773 8.16176 0.225985 9.59669 0.200275 11.1004V174.1C0.187047 175.264 0.404899 176.419 0.841214 177.499C1.27753 178.578 1.92364 179.56 2.74211 180.388C3.56059 181.215 4.53517 181.873 5.6094 182.321C6.68364 182.77 7.83618 183 9.00028 183H109.6C111.723 182.996 113.773 182.224 115.372 180.828C116.971 179.431 118.011 177.504 118.3 175.4H85.1003C84.0807 175.414 83.0687 175.224 82.1229 174.843C81.1771 174.462 80.3164 173.897 79.5908 173.181C78.8652 172.464 78.289 171.611 77.8958 170.67C77.5026 169.73 77.3002 168.72 77.3003 167.7Z" fill="url(#paint1_linear)"/>
<path d="M66.5002 53.4992C58.1002 62.6992 54.1002 71.7992 49.7002 81.2992H82.8002V40.1992H82.1002C76.3391 43.9288 71.0941 48.4006 66.5002 53.4992Z" fill="#F4F5F7"/>
<path d="M112.7 5.40039H5.9002C4.39649 5.4261 2.96156 6.03489 1.89813 7.09832C0.834693 8.16176 0.225905 9.59669 0.200195 11.1004L0.200195 25.6004H118.4V11.1004C118.4 9.58866 117.8 8.13884 116.731 7.06988C115.662 6.00092 114.212 5.40039 112.7 5.40039Z" fill="#E5E8EC"/>
<path d="M118.4 25.5996H0.200195V136C11.4518 129.994 21.5971 122.115 30.2002 112.7C40.5002 101.4 45.3002 91.0996 49.7002 81.2996H23.5002V40.1996H82.1002C90.9002 34.5996 102.6 29.2996 118.4 25.8996V25.5996Z" fill="url(#paint2_linear)"/>
<path d="M23.5002 81.2992H49.7002C54.1002 71.7992 58.1003 62.6992 66.5002 53.4992C71.0941 48.4006 76.3392 43.9288 82.1002 40.1992H23.5002V81.2992Z" fill="#F4F5F7"/>
<path d="M23.5002 81.2992H49.7002C54.1002 71.7992 58.1003 62.6992 66.5002 53.4992C71.0941 48.4006 76.3392 43.9288 82.1002 40.1992H23.5002V81.2992Z" fill="url(#paint3_linear)"/>
<path d="M118.6 192.1H0.200195V205.72H118.6V192.1Z" fill="#A5ADBA"/>
<path d="M100.2 69.9996C101.968 69.9996 103.4 68.5669 103.4 66.7996C103.4 65.0323 101.968 63.5996 100.2 63.5996C98.4329 63.5996 97.0002 65.0323 97.0002 66.7996C97.0002 68.5669 98.4329 69.9996 100.2 69.9996Z" fill="#48CC8C"/>
<path d="M100.2 81.4C101.968 81.4 103.4 79.9673 103.4 78.2C103.4 76.4327 101.968 75 100.2 75C98.4329 75 97.0002 76.4327 97.0002 78.2C97.0002 79.9673 98.4329 81.4 100.2 81.4Z" fill="#48CC8C"/>
<path d="M100.2 54.5992C104.177 54.5992 107.4 51.3757 107.4 47.3992C107.4 43.4228 104.177 40.1992 100.2 40.1992C96.2238 40.1992 93.0002 43.4228 93.0002 47.3992C93.0002 51.3757 96.2238 54.5992 100.2 54.5992Z" fill="#0065FF"/>
<path d="M94.6001 160.4H23.4001V162.4H94.6001V160.4Z" fill="white"/>
<path d="M94.6001 152.5H23.4001V154.5H94.6001V152.5Z" fill="white"/>
<path d="M94.6001 144.5H23.4001V146.5H94.6001V144.5Z" fill="white"/>
<path d="M94.6001 136.6H23.4001V138.6H94.6001V136.6Z" fill="white"/>
<path d="M171.6 43.8996C183.695 43.8996 193.5 34.0946 193.5 21.9996C193.5 9.90457 183.695 0.0996094 171.6 0.0996094C159.505 0.0996094 149.7 9.90457 149.7 21.9996C149.7 34.0946 159.505 43.8996 171.6 43.8996Z" fill="url(#paint4_linear)"/>
<path d="M181.2 18.6992H161.9C161.348 18.6992 160.9 19.1469 160.9 19.6992V24.1992C160.9 24.7515 161.348 25.1992 161.9 25.1992H181.2C181.752 25.1992 182.2 24.7515 182.2 24.1992V19.6992C182.2 19.1469 181.752 18.6992 181.2 18.6992Z" fill="#E2FFEE"/>
<path d="M173.9 11.2988H169.4C168.848 11.2988 168.4 11.7465 168.4 12.2988V31.6388C168.4 32.1911 168.848 32.6388 169.4 32.6388H173.9C174.452 32.6388 174.9 32.1911 174.9 31.6388V12.2988C174.9 11.7465 174.452 11.2988 173.9 11.2988Z" fill="#E2FFEE"/>
</g>
<defs>
<linearGradient id="paint0_linear" x1="-12.6698" y1="165.39" x2="131.31" y2="21.41" gradientUnits="userSpaceOnUse">
<stop stop-color="#C1C7D0"/>
<stop offset="1" stop-color="#F4F5F7"/>
</linearGradient>
<linearGradient id="paint1_linear" x1="-1500.95" y1="29309.4" x2="22030.9" y2="13646.9" gradientUnits="userSpaceOnUse">
<stop stop-color="#C1C7D0"/>
<stop offset="1" stop-color="#F4F5F7"/>
</linearGradient>
<linearGradient id="paint2_linear" x1="-28.8498" y1="113.91" x2="89.5202" y2="-4.46039" gradientUnits="userSpaceOnUse">
<stop offset="0.26" stop-color="#C1C7D0" stop-opacity="0"/>
<stop offset="1" stop-color="#C1C7D0"/>
</linearGradient>
<linearGradient id="paint3_linear" x1="-1317.85" y1="4970.97" x2="3256.34" y2="-1550.87" gradientUnits="userSpaceOnUse">
<stop offset="0.26" stop-color="#C1C7D0" stop-opacity="0"/>
<stop offset="1" stop-color="#C1C7D0"/>
</linearGradient>
<linearGradient id="paint4_linear" x1="149.75" y1="21.9596" x2="193.46" y2="21.9596" gradientUnits="userSpaceOnUse">
<stop stop-color="#48CC8C"/>
<stop offset="1" stop-color="#78F0B7"/>
</linearGradient>
<clipPath id="clip0">
<rect width="193.3" height="205.7" fill="white" transform="translate(0.200195 0.0996094)"/>
</clipPath>
</defs>
</svg>
