<svg width="380" height="32" viewBox="0 0 380 32" fill="none" xmlns="http://www.w3.org/2000/svg">
<g id="logo-gradient-blue-marketplace">
<g id="Group">
<g id="Group_2">
<g id="Group_3">
<path id="Vector" d="M7.8416 11.0839C7.48084 10.687 6.93969 10.7231 6.68716 11.1921L0.842816 22.9169C0.626359 23.3859 0.951044 23.927 1.45611 23.927H9.60933C9.86187 23.927 10.1144 23.7827 10.2226 23.5301C12.0264 19.8864 10.9442 14.3668 7.8416 11.0839Z" fill="url(#paint0_linear)"/>
<path id="Vector_2" d="M12.1352 0.405337C8.85227 5.60031 9.06873 11.3364 11.2333 15.6655C13.3979 19.9946 15.0574 23.2776 15.1656 23.5301C15.2738 23.7827 15.5264 23.927 15.7789 23.927H23.9321C24.4372 23.927 24.7979 23.3858 24.5454 22.9169C24.5454 22.9169 13.5783 0.982504 13.2896 0.441361C13.1093 -0.0637063 12.4599 -0.0997297 12.1352 0.405337Z" fill="#2684FF"/>
</g>
</g>
<g id="Group_4">
<g id="Group_5">
<g id="Group_6">
<path id="Vector_3" d="M122.926 18.1187C122.926 14.6914 121.086 13.068 115.963 11.9497C113.113 11.3364 112.428 10.687 112.428 9.78511C112.428 8.66675 113.438 8.16168 115.314 8.16168C117.587 8.16168 119.823 8.84708 121.952 9.82113V5.31161C120.473 4.55401 118.164 3.97681 115.458 3.97681C110.371 3.97681 107.738 6.17744 107.738 9.82113C107.738 12.7072 109.073 15.0161 114.34 16.0262C117.478 16.6756 118.128 17.1807 118.128 18.2269C118.128 19.237 117.478 19.8864 115.242 19.8864C112.68 19.8864 109.614 19.0205 107.63 17.83V22.5561C109.217 23.3497 111.309 24.2156 115.206 24.2156C120.761 24.2156 122.926 21.7624 122.926 18.1187Z" fill="#0052CC"/>
<path id="Vector_4" d="M178.447 4.26538V23.9269H182.631V8.95529L184.399 12.9237L190.316 23.9269H195.583V4.26538H191.398V16.9642L189.811 13.2844L185.048 4.26538H178.447Z" fill="#0052CC"/>
<path id="Vector_5" d="M151.822 4.26538H147.24V23.8908H151.822V4.26538Z" fill="#0052CC"/>
<path id="Vector_6" d="M141.974 18.1187C141.974 14.6914 140.134 13.068 135.011 11.9497C132.161 11.3364 131.475 10.687 131.475 9.78511C131.475 8.66675 132.486 8.16168 134.361 8.16168C136.634 8.16168 138.871 8.84708 141 9.82113V5.31161C139.52 4.55401 137.212 3.97681 134.506 3.97681C129.419 3.97681 126.785 6.17744 126.785 9.82113C126.785 12.7072 128.12 15.0161 133.387 16.0262C136.526 16.6756 137.175 17.1807 137.175 18.2269C137.175 19.237 136.526 19.8864 134.289 19.8864C131.728 19.8864 128.661 19.0205 126.677 17.83V22.5561C128.265 23.3497 130.357 24.2156 134.253 24.2156C139.809 24.2156 141.974 21.7624 141.974 18.1187Z" fill="#0052CC"/>
<path id="Vector_7" d="M72.238 4.26538V23.9269H81.6539L83.133 19.6699H76.8558V4.26538H72.238Z" fill="#0052CC"/>
<path id="Vector_8" d="M53.6951 4.26599V8.523H58.7818V23.9275H63.3635V8.523H68.811V4.26599H53.6951Z" fill="#0052CC"/>
</g>
</g>
<path id="Vector_9" d="M47.0215 4.26648H40.9968L34.1423 23.8919H39.3734L40.3474 20.5729C41.5019 20.8976 42.7285 21.114 44.0272 21.114C45.2899 21.114 46.5165 20.9337 47.707 20.5729L48.681 23.8919H53.9121L47.0215 4.26648ZM43.9911 17.0735C43.1253 17.0735 42.2595 16.9292 41.4658 16.7128L43.9911 8.12662L46.5165 16.7128C45.7228 16.9292 44.857 17.0735 43.9911 17.0735Z" fill="#0052CC"/>
<path id="Vector_10" d="M97.8533 4.2655H91.8286L84.9741 23.8909H90.2052L91.1792 20.5719C92.3337 20.8966 93.5603 21.1131 94.859 21.1131C96.1217 21.1131 97.3483 20.9327 98.5388 20.5719L99.5128 23.8909H104.744L97.8533 4.2655ZM94.859 17.0726C93.9932 17.0726 93.1273 16.9283 92.3337 16.7118L94.859 8.12564L97.3843 16.7118C96.5546 16.9283 95.7248 17.0726 94.859 17.0726Z" fill="#0052CC"/>
<path id="Vector_11" d="M168.31 4.2655H162.285L155.43 23.8909H160.661L161.636 20.5719C162.79 20.8966 164.017 21.1131 165.315 21.1131C166.578 21.1131 167.805 20.9327 168.995 20.5719L169.969 23.8909H175.2L168.31 4.2655ZM165.279 17.0726C164.413 17.0726 163.548 16.9283 162.754 16.7118L165.279 8.12564L167.805 16.7118C167.011 16.9283 166.181 17.0726 165.279 17.0726Z" fill="#0052CC"/>
</g>
</g>
<g id="Group_7">
<g id="Group_8">
<path id="Vector_12" d="M210.915 4.55419V23.9271H208.029V2.82251H213.044L217.842 14.9441L219.79 20.7524L221.738 14.9441L226.572 2.82251H231.226V23.9271H228.34V4.77059L225.851 12.3827L221.197 23.9271H218.419L213.837 12.3827L210.915 4.55419Z" fill="#253858"/>
<path id="Vector_13" d="M246.738 21.0048C245.728 23.1333 243.78 24.2156 241.327 24.2156C237.07 24.2156 234.905 20.5719 234.905 15.882C234.905 11.3364 237.142 7.54834 241.651 7.54834C243.996 7.54834 245.8 8.59462 246.774 10.687V7.87308H249.552V23.927H246.774V21.0048H246.738ZM242.048 21.6542C244.537 21.6542 246.738 20.0668 246.738 16.5314V15.2326C246.738 11.661 244.718 10.1098 242.373 10.1098C239.27 10.1098 237.647 12.1661 237.647 15.882C237.647 19.7421 239.198 21.6542 242.048 21.6542Z" fill="#253858"/>
<path id="Vector_14" d="M256.371 23.927H253.666V7.87307H256.371V10.687C257.309 8.775 258.897 7.44018 262.071 7.62056V10.3263C258.536 9.96551 256.371 11.0478 256.371 14.4389V23.927Z" fill="#253858"/>
<path id="Vector_15" d="M264.416 23.9268V1.16272H267.194V15.3768L274.084 7.87293H277.692L270.152 15.7736L278.017 23.9268H274.265L267.194 16.423V23.9268H264.416Z" fill="#253858"/>
<path id="Vector_16" d="M287.18 24.2155C281.191 24.2155 278.558 20.7521 278.558 15.8458C278.558 11.0115 281.263 7.51221 286.134 7.51221C291.076 7.51221 293.06 10.9394 293.06 15.8458V17.1084H281.335C281.732 19.8502 283.5 21.618 287.288 21.618C289.164 21.618 290.715 21.2572 292.158 20.7522V23.2775C290.824 23.9629 288.803 24.2155 287.18 24.2155ZM281.299 14.7274H290.246C290.102 11.7331 288.731 10.0375 285.989 10.0375C283.067 10.0375 281.588 11.9496 281.299 14.7274Z" fill="#253858"/>
<path id="Vector_17" d="M302.693 21.2932C303.342 21.2932 303.956 21.1489 304.425 21.0768V23.7464C303.956 23.8908 303.415 23.999 302.549 23.999C299.121 23.999 297.426 21.9787 297.426 18.9844V10.3983H294.828V7.83681H297.426V4.44568H300.132V7.83681H304.389V10.3983H300.132V18.9122C300.132 20.3552 300.961 21.2932 302.693 21.2932Z" fill="#253858"/>
<path id="Vector_18" d="M310.702 21.0768V30.1681H307.924V7.83686H310.702V10.723C311.712 8.59446 313.66 7.51221 316.114 7.51221C320.371 7.51221 322.535 11.1559 322.535 15.8458C322.535 20.3914 320.298 24.1794 315.789 24.1794C313.48 24.2155 311.676 23.1692 310.702 21.0768ZM315.392 10.1097C312.903 10.1097 310.702 11.697 310.702 15.2325V16.5313C310.702 20.1028 312.722 21.6541 315.067 21.6541C318.17 21.6541 319.793 19.5977 319.793 15.8819C319.793 12.0217 318.242 10.1097 315.392 10.1097Z" fill="#253858"/>
<path id="Vector_19" d="M330.076 23.999C327.442 23.999 325.783 22.7363 325.783 19.7781V1.12671H328.561V19.4534C328.561 20.8964 329.535 21.4015 330.725 21.4015C331.014 21.4015 331.194 21.4015 331.519 21.3654V23.8547C331.267 23.9269 330.761 23.999 330.076 23.999Z" fill="#253858"/>
<path id="Vector_20" d="M344.866 21.0047C343.856 23.1332 341.908 24.2155 339.455 24.2155C335.198 24.2155 333.033 20.5718 333.033 15.8819C333.033 11.3363 335.27 7.54822 339.779 7.54822C342.124 7.54822 343.928 8.5945 344.902 10.6869V7.87296H347.68V23.9269H344.902V21.0047H344.866ZM340.176 21.654C342.666 21.654 344.866 20.0667 344.866 16.5312V15.2325C344.866 11.6609 342.846 10.1097 340.501 10.1097C337.398 10.1097 335.775 12.166 335.775 15.8819C335.775 19.742 337.326 21.654 340.176 21.654Z" fill="#253858"/>
<path id="Vector_21" d="M363.157 23.494C362.183 23.9991 360.704 24.2155 359.225 24.2155C353.525 24.2155 350.855 20.7521 350.855 15.8458C350.855 11.0115 353.525 7.51221 359.225 7.51221C360.668 7.51221 361.787 7.69254 363.049 8.26975V10.8312C362.039 10.3622 360.921 10.0736 359.406 10.0736C355.221 10.0736 353.525 12.7072 353.525 15.8097C353.525 18.9123 355.257 21.5458 359.478 21.5458C361.101 21.5458 362.147 21.3294 363.121 20.9687V23.494H363.157Z" fill="#253858"/>
<path id="Vector_22" d="M373.98 24.2155C367.992 24.2155 365.358 20.7521 365.358 15.8458C365.358 11.0115 368.064 7.51221 372.934 7.51221C377.877 7.51221 379.861 10.9394 379.861 15.8458V17.1084H368.136C368.533 19.8502 370.301 21.618 374.089 21.618C375.965 21.618 377.516 21.2572 378.959 20.7522V23.2775C377.624 23.9629 375.604 24.2155 373.98 24.2155ZM368.1 14.7274H377.047C376.903 11.7331 375.532 10.0375 372.79 10.0375C369.868 10.0375 368.389 11.9496 368.1 14.7274Z" fill="#253858"/>
</g>
</g>
</g>
<defs>
<linearGradient id="paint0_linear" x1="11.0654" y1="12.8734" x2="4.88506" y2="23.578" gradientUnits="userSpaceOnUse">
<stop stop-color="#0052CC"/>
<stop offset="0.9228" stop-color="#2684FF"/>
</linearGradient>
</defs>
</svg>
